<svg width="20" height="21" viewBox="0 0 20 21" fill="none" xmlns="http://www.w3.org/2000/svg">
<path d="M9.99996 3.33301C10.2758 3.33318 10.4998 3.55712 10.5 3.83301V15.959L14.9804 11.4795C15.1757 11.2847 15.4924 11.2844 15.6875 11.4795C15.8824 11.6746 15.8822 11.9913 15.6875 12.1865L10.3535 17.5195C10.2598 17.6132 10.1325 17.6659 9.99996 17.666C9.86747 17.6659 9.74014 17.6132 9.64645 17.5195L4.31344 12.1865C4.11818 11.9913 4.11818 11.6748 4.31344 11.4795C4.48431 11.3089 4.74839 11.287 4.94234 11.415L5.02047 11.4795L9.49996 15.959V3.83301C9.50014 3.55712 9.72408 3.33318 9.99996 3.33301Z" fill="white"/>
<path d="M9.99996 3.33301L10.0003 2.83301L9.99964 2.83301L9.99996 3.33301ZM10.5 3.83301L11 3.83301L11 3.83269L10.5 3.83301ZM10.5 15.959H9.99996V17.1659L10.8535 16.3126L10.5 15.959ZM14.9804 11.4795L14.6274 11.1255L14.6269 11.1259L14.9804 11.4795ZM15.6875 11.4795L16.0412 11.1261L16.041 11.1259L15.6875 11.4795ZM15.6875 12.1865L16.041 12.5401L16.0415 12.5396L15.6875 12.1865ZM10.3535 17.5195L9.99996 17.1659L9.99992 17.166L10.3535 17.5195ZM9.99996 17.666L9.99964 18.166L10.0003 18.166L9.99996 17.666ZM9.64645 17.5195L9.29289 17.8731L9.29289 17.8731L9.64645 17.5195ZM4.31344 12.1865L3.95989 12.5401L3.95989 12.5401L4.31344 12.1865ZM4.31344 11.4795L3.9602 11.1256L3.95989 11.1259L4.31344 11.4795ZM4.94234 11.415L5.26054 11.0294L5.24004 11.0124L5.21787 10.9978L4.94234 11.415ZM5.02047 11.4795L5.37402 11.1259L5.35711 11.109L5.33866 11.0938L5.02047 11.4795ZM9.49996 15.959L9.14641 16.3125L9.99996 17.1661V15.959H9.49996ZM9.49996 3.83301L8.99996 3.83269V3.83301H9.49996ZM9.99996 3.33301L9.99964 3.83301L9.99996 3.83333L10.5 3.83301L11 3.83269C10.9996 3.28091 10.5521 2.83336 10.0003 2.83301L9.99996 3.33301ZM10.5 3.83301H9.99996V15.959H10.5H11V3.83301H10.5ZM10.5 15.959L10.8535 16.3126L15.3339 11.8331L14.9804 11.4795L14.6269 11.1259L10.1464 15.6054L10.5 15.959ZM14.9804 11.4795L15.3335 11.8335L15.3339 11.833L15.6875 11.4795L16.041 11.1259C15.6502 10.7351 15.0173 10.7365 14.6274 11.1255L14.9804 11.4795ZM15.6875 11.4795L15.3337 11.8329L15.3334 11.8334L15.6875 12.1865L16.0415 12.5396C16.4305 12.1495 16.4315 11.5168 16.0412 11.1261L15.6875 11.4795ZM15.6875 12.1865L15.3339 11.8329L9.99996 17.1659L10.3535 17.5195L10.707 17.8731L16.041 12.5401L15.6875 12.1865ZM10.3535 17.5195L9.99992 17.166L9.99964 17.166L9.99996 17.666L10.0003 18.166C10.2651 18.1658 10.5195 18.0606 10.707 17.8731L10.3535 17.5195ZM9.99996 17.666L10.0003 17.166L10 17.166L9.64645 17.5195L9.29289 17.8731C9.48042 18.0606 9.73486 18.1658 9.99964 18.166L9.99996 17.666ZM9.64645 17.5195L10 17.166L4.66699 11.833L4.31344 12.1865L3.95989 12.5401L9.29289 17.8731L9.64645 17.5195ZM4.31344 12.1865L4.66699 11.833L4.66699 11.833L4.31344 11.4795L3.95989 11.1259C3.56936 11.5165 3.56936 12.1496 3.95989 12.5401L4.31344 12.1865ZM4.31344 11.4795L4.66667 11.8334C4.66735 11.8327 4.66738 11.8328 4.66698 11.833C4.66678 11.8331 4.66691 11.833 4.6674 11.8329C4.66885 11.8328 4.66845 11.8334 4.66682 11.8323L4.94234 11.415L5.21787 10.9978C4.8287 10.7408 4.30146 10.785 3.9602 11.1256L4.31344 11.4795ZM4.94234 11.415L4.62415 11.8007L4.70228 11.8652L5.02047 11.4795L5.33866 11.0938L5.26054 11.0294L4.94234 11.415ZM5.02047 11.4795L4.66692 11.833L9.14641 16.3125L9.49996 15.959L9.85352 15.6054L5.37402 11.1259L5.02047 11.4795ZM9.49996 15.959H9.99996V3.83301H9.49996H8.99996V15.959H9.49996ZM9.49996 3.83301L9.99996 3.83333L10.0003 3.83301L9.99996 3.33301L9.99964 2.83301C9.44787 2.83336 9.00031 3.28091 8.99996 3.83269L9.49996 3.83301Z" fill="white"/>
</svg>
